<svg width="361" height="396" viewBox="0 0 361 396" fill="none" xmlns="http://www.w3.org/2000/svg">
<path d="M46.9062 377H39.7188V323.68H71.4375V330.047H46.9062V377ZM76.7891 351.18L77.1016 335.906H105.148V377H98.0781V341.648H83.625L83.3906 351.258C83.2865 355.581 83.1042 359.37 82.8438 362.625C82.5833 365.854 82.1016 368.562 81.3984 370.75C80.6953 372.938 79.6146 374.591 78.1562 375.711C76.6979 376.805 74.7057 377.352 72.1797 377.352C71.3984 377.352 70.7865 377.273 70.3438 377.117C69.901 376.987 69.6797 376.922 69.6797 376.922V370.516C69.6797 370.516 69.849 370.568 70.1875 370.672C70.526 370.75 70.9297 370.789 71.3984 370.789C72.6745 370.789 73.6641 370.346 74.3672 369.461C75.0703 368.576 75.5781 367.299 75.8906 365.633C76.2031 363.94 76.4115 361.883 76.5156 359.461C76.6198 357.039 76.7109 354.279 76.7891 351.18ZM128.82 377.664C124.836 377.664 121.594 376.531 119.094 374.266C116.62 372 115.383 368.979 115.383 365.203C115.383 361.609 116.607 358.745 119.055 356.609C121.529 354.474 125.122 353.393 129.836 353.367H140.578V349.266C140.578 346.635 139.836 344.617 138.352 343.211C136.893 341.805 134.81 341.102 132.102 341.102C130.383 341.102 128.911 341.375 127.688 341.922C126.464 342.469 125.513 343.25 124.836 344.266C124.159 345.255 123.742 346.414 123.586 347.742H116.945C117.049 345.971 117.427 344.331 118.078 342.82C118.755 341.284 119.719 339.956 120.969 338.836C122.245 337.716 123.82 336.844 125.695 336.219C127.596 335.568 129.81 335.242 132.336 335.242C135.279 335.242 137.896 335.763 140.188 336.805C142.505 337.846 144.315 339.37 145.617 341.375C146.945 343.354 147.609 345.802 147.609 348.719V377H140.852V371.883H140.617C139.94 373.003 139.068 373.992 138 374.852C136.932 375.711 135.643 376.401 134.133 376.922C132.622 377.417 130.852 377.664 128.82 377.664ZM130.773 371.883C132.648 371.883 134.328 371.518 135.812 370.789C137.297 370.06 138.456 369.057 139.289 367.781C140.148 366.505 140.578 365.034 140.578 363.367V358.641H130.539C127.753 358.641 125.734 359.227 124.484 360.398C123.234 361.57 122.609 363.081 122.609 364.93C122.609 367.299 123.443 369.057 125.109 370.203C126.776 371.323 128.664 371.883 130.773 371.883ZM159.836 377V335.906H176.984C180.734 335.906 183.768 336.857 186.086 338.758C188.43 340.633 189.602 343.185 189.602 346.414C189.602 347.977 189.328 349.357 188.781 350.555C188.26 351.727 187.505 352.703 186.516 353.484C185.526 354.266 184.341 354.852 182.961 355.242V355.438C184.862 355.698 186.477 356.271 187.805 357.156C189.133 358.042 190.148 359.201 190.852 360.633C191.555 362.039 191.906 363.654 191.906 365.477C191.906 367.977 191.242 370.086 189.914 371.805C188.612 373.523 186.789 374.826 184.445 375.711C182.128 376.57 179.458 377 176.438 377H159.836ZM166.789 341.414V353.172H174.328C176.151 353.172 177.674 352.964 178.898 352.547C180.122 352.104 181.047 351.44 181.672 350.555C182.323 349.643 182.648 348.445 182.648 346.961C182.648 345.034 181.984 343.628 180.656 342.742C179.354 341.857 177.74 341.414 175.812 341.414H166.789ZM166.789 358.562V371.492H175.5C178.208 371.492 180.448 371.062 182.219 370.203C183.99 369.344 184.875 367.651 184.875 365.125C184.875 362.938 184.094 361.297 182.531 360.203C180.969 359.109 178.911 358.562 176.359 358.562H166.789ZM228.664 377V358.602H209.719V377H202.648V335.906H209.719V352.898H228.664V335.906H235.734V377H228.664ZM259.445 377.664C255.461 377.664 252.219 376.531 249.719 374.266C247.245 372 246.008 368.979 246.008 365.203C246.008 361.609 247.232 358.745 249.68 356.609C252.154 354.474 255.747 353.393 260.461 353.367H271.203V349.266C271.203 346.635 270.461 344.617 268.977 343.211C267.518 341.805 265.435 341.102 262.727 341.102C261.008 341.102 259.536 341.375 258.312 341.922C257.089 342.469 256.138 343.25 255.461 344.266C254.784 345.255 254.367 346.414 254.211 347.742H247.57C247.674 345.971 248.052 344.331 248.703 342.82C249.38 341.284 250.344 339.956 251.594 338.836C252.87 337.716 254.445 336.844 256.32 336.219C258.221 335.568 260.435 335.242 262.961 335.242C265.904 335.242 268.521 335.763 270.812 336.805C273.13 337.846 274.94 339.37 276.242 341.375C277.57 343.354 278.234 345.802 278.234 348.719V377H271.477V371.883H271.242C270.565 373.003 269.693 373.992 268.625 374.852C267.557 375.711 266.268 376.401 264.758 376.922C263.247 377.417 261.477 377.664 259.445 377.664ZM261.398 371.883C263.273 371.883 264.953 371.518 266.438 370.789C267.922 370.06 269.081 369.057 269.914 367.781C270.773 366.505 271.203 365.034 271.203 363.367V358.641H261.164C258.378 358.641 256.359 359.227 255.109 360.398C253.859 361.57 253.234 363.081 253.234 364.93C253.234 367.299 254.068 369.057 255.734 370.203C257.401 371.323 259.289 371.883 261.398 371.883ZM305.656 356.766H312.961V341.609H305.617C302.909 341.609 300.747 342.312 299.133 343.719C297.544 345.099 296.75 346.935 296.75 349.227C296.75 351.544 297.557 353.38 299.172 354.734C300.786 356.089 302.948 356.766 305.656 356.766ZM312.961 377V362.352H306.516L296.086 377H287.844L299.094 361.219C296.125 360.359 293.82 358.888 292.18 356.805C290.539 354.721 289.719 352.143 289.719 349.07C289.719 346.414 290.357 344.096 291.633 342.117C292.909 340.138 294.719 338.615 297.062 337.547C299.406 336.453 302.167 335.906 305.344 335.906H320.031V377H312.961Z" fill="white"/>
<path d="M293.903 170.978C298.743 174.769 301.571 180.576 301.571 186.724V281C301.571 292.046 292.617 301 281.571 301H243.727C232.681 301 223.727 292.046 223.727 281V243.503C223.727 232.457 214.772 223.503 203.727 223.503H178.997C167.951 223.503 158.997 232.457 158.997 243.503V281C158.997 292.046 150.043 301 138.997 301H101.152C90.1066 301 81.1523 292.046 81.1523 281V186.724C81.1523 180.576 83.9804 174.769 88.8212 170.978L179.031 100.334C186.274 94.662 196.451 94.662 203.693 100.334L293.903 170.978Z" fill="white"/>
<path d="M41.5947 175.47C36.7573 168.474 38.169 158.926 44.8239 153.63L178.906 46.9129C186.196 41.111 196.526 41.111 203.816 46.9129L337.898 153.63C344.553 158.926 345.964 168.474 341.127 175.47C335.807 183.164 325.085 184.75 317.766 178.924L203.816 88.2302C196.526 82.4283 186.196 82.4283 178.906 88.2302L64.9557 178.924C57.6364 184.75 46.9152 183.164 41.5947 175.47Z" fill="white"/>
</svg>
