<svg width="361" height="396" viewBox="0 0 361 396" fill="none" xmlns="http://www.w3.org/2000/svg">
<path d="M97.0703 377L74.1797 352.547H73.9062V377H66.7188V323.68H73.9062V346.336H74.1797L96.7188 323.68H105.547L80.1953 349.109L106.25 377H97.0703ZM139.102 377V358.602H120.156V377H113.086V335.906H120.156V352.898H139.102V335.906H146.172V377H139.102ZM185.703 377V346.805H185.508L165.273 377H158.789V335.906H165.664V366.102H165.859L186.094 335.906H192.578V377H185.703ZM231.016 341.648H212.266V377H205.195V335.906H231.016V341.648ZM266.562 377V346.805H266.367L246.133 377H239.648V335.906H246.523V366.102H246.719L266.953 335.906H273.438V377H266.562Z" fill="white"/>
<path d="M277.953 45.8002C274.789 43.5567 270.722 42.9784 267.059 44.2668L130.837 91.9412C113.66 91.1262 101.961 86.4199 93.898 81.1707C91.4705 79.593 90.9444 78.6642 90.9444 78.6642C89.4895 77.2092 88.9287 75.1935 89.3409 73.1165C89.7616 71.0396 91.2428 69.3396 93.2407 68.6385L215.152 25.9766C216.984 25.3283 219.017 25.6171 220.594 26.7389C220.734 26.8443 220.857 26.9845 220.988 27.0894L229.91 23.8644C229.358 20.8059 227.701 18.0363 225.116 16.2135C221.952 13.961 217.886 13.3917 214.223 14.6711L86.0188 59.5411C81.2161 61.2237 78 65.7635 78 70.8461V73.9747V271.578C78 271.578 86.4485 299.061 130.836 301.173L266.954 253.533C276.559 250.168 283 241.098 283 230.914V55.5718C283.001 51.6894 281.117 48.0437 277.953 45.8002Z" fill="white"/>
<path d="M106.194 73.5983L111.6 76.1749L234.774 33.0576L229.358 30.481L106.194 73.5983Z" fill="white"/>
<path d="M126.473 83.186L249.488 40.1215L244.107 37.5364L121.065 80.6094L126.473 83.186Z" fill="white"/>
</svg>
