<svg width="361" height="396" viewBox="0 0 361 396" fill="none" xmlns="http://www.w3.org/2000/svg">
<path d="M86.2031 377H79.7188V323.68H86.75L104.172 364.188H104.367L121.711 323.68H128.781V377H122.258V338.602H122.023L107.18 372.312H101.281L86.4375 338.602H86.2031V377ZM157.492 377.625C153.924 377.625 150.839 376.844 148.234 375.281C145.63 373.693 143.625 371.453 142.219 368.562C140.839 365.672 140.148 362.273 140.148 358.367V353.836C140.148 350.164 140.812 346.935 142.141 344.148C143.495 341.362 145.435 339.174 147.961 337.586C150.513 335.997 153.599 335.203 157.219 335.203C160.812 335.203 163.872 336.01 166.398 337.625C168.951 339.214 170.891 341.44 172.219 344.305C173.573 347.169 174.25 350.503 174.25 354.305V358.133H147.18V358.914C147.18 362.716 148.104 365.815 149.953 368.211C151.828 370.607 154.406 371.805 157.688 371.805C159.25 371.805 160.63 371.557 161.828 371.062C163.026 370.568 164.029 369.865 164.836 368.953C165.669 368.016 166.307 366.922 166.75 365.672H173.703C173.339 367.365 172.727 368.94 171.867 370.398C171.008 371.831 169.901 373.094 168.547 374.188C167.193 375.255 165.591 376.102 163.742 376.727C161.919 377.326 159.836 377.625 157.492 377.625ZM147.18 352.586H167.219C167.219 352.56 167.219 352.547 167.219 352.547C167.219 352.521 167.219 352.495 167.219 352.469C167.219 350.333 166.802 348.406 165.969 346.688C165.135 344.943 163.964 343.562 162.453 342.547C160.969 341.531 159.224 341.023 157.219 341.023C155.188 341.023 153.417 341.531 151.906 342.547C150.422 343.562 149.263 344.943 148.43 346.688C147.596 348.406 147.18 350.333 147.18 352.469C147.18 352.495 147.18 352.521 147.18 352.547C147.18 352.547 147.18 352.56 147.18 352.586ZM211.242 377V358.602H192.297V377H185.227V335.906H192.297V352.898H211.242V335.906H218.312V377H211.242ZM262.805 377.664C259.471 377.664 256.503 376.974 253.898 375.594C251.32 374.214 249.276 372.208 247.766 369.578C246.281 366.922 245.513 363.693 245.461 359.891C245.461 359.682 245.461 359.474 245.461 359.266C245.461 359.031 245.461 358.81 245.461 358.602H238V377H230.93V335.906H238V352.898H245.461C245.565 349.279 246.359 346.154 247.844 343.523C249.354 340.867 251.398 338.823 253.977 337.391C256.581 335.958 259.523 335.242 262.805 335.242C266.138 335.242 269.107 335.958 271.711 337.391C274.315 338.797 276.372 340.867 277.883 343.602C279.393 346.31 280.148 349.565 280.148 353.367V359.461C280.148 363.315 279.393 366.609 277.883 369.344C276.372 372.052 274.315 374.122 271.711 375.555C269.107 376.961 266.138 377.664 262.805 377.664ZM262.805 341.258C260.721 341.258 258.898 341.805 257.336 342.898C255.799 343.966 254.602 345.464 253.742 347.391C252.909 349.292 252.492 351.492 252.492 353.992V358.953C252.492 361.505 252.896 363.732 253.703 365.633C254.51 367.534 255.682 369.018 257.219 370.086C258.755 371.154 260.617 371.688 262.805 371.688C265.018 371.688 266.88 371.154 268.391 370.086C269.901 369.018 271.047 367.534 271.828 365.633C272.635 363.732 273.039 361.505 273.039 358.953V353.992C273.039 351.466 272.622 349.253 271.789 347.352C270.982 345.451 269.81 343.966 268.273 342.898C266.763 341.805 264.94 341.258 262.805 341.258Z" fill="white"/>
<path d="M138.616 158.5C138.616 165.821 132.515 171.756 124.988 171.756C117.462 171.756 111.36 165.821 111.36 158.5C111.36 151.179 117.462 145.244 124.988 145.244C132.515 145.244 138.616 151.179 138.616 158.5Z" fill="white"/>
<path d="M193.128 158.5C193.128 165.821 187.027 171.756 179.5 171.756C171.973 171.756 165.872 165.821 165.872 158.5C165.872 151.179 171.973 145.244 179.5 145.244C187.027 145.244 193.128 151.179 193.128 158.5Z" fill="white"/>
<path d="M234.012 171.756C241.538 171.756 247.64 165.821 247.64 158.5C247.64 151.179 241.538 145.244 234.012 145.244C226.485 145.244 220.384 151.179 220.384 158.5C220.384 165.821 226.485 171.756 234.012 171.756Z" fill="white"/>
<path fill-rule="evenodd" clip-rule="evenodd" d="M180.282 16H178.718C147.26 15.9999 122.606 15.9997 103.371 18.5153C83.6818 21.0901 68.1457 26.4632 55.9513 38.3246C43.7569 50.1861 38.233 65.298 35.5859 84.4492C32.9997 103.159 32.9999 127.14 33 157.739V159.261C32.9999 189.861 32.9997 213.84 35.5859 232.551C38.233 251.702 43.7569 266.815 55.9513 278.676C68.1457 290.537 83.6818 295.91 103.371 298.485C122.606 301 147.26 301 178.718 301H180.282C211.741 301 236.394 301 255.63 298.485C275.318 295.91 290.855 290.537 303.049 278.676C315.244 266.815 320.767 251.702 323.415 232.551C326 213.84 326 189.861 326 159.261V157.739C326 127.14 326 103.159 323.415 84.4492C320.767 65.298 315.244 50.1861 303.049 38.3246C290.855 26.4632 275.318 21.0901 255.63 18.5153C236.394 15.9997 211.741 15.9999 180.282 16ZM70.4059 52.3846C78.169 44.8333 88.6723 40.5001 106.094 38.2216C123.81 35.9048 147.09 35.8837 179.5 35.8837C211.91 35.8837 235.189 35.9048 252.905 38.2216C270.327 40.5001 280.83 44.8333 288.594 52.3846C296.358 59.9357 300.813 70.1523 303.154 87.0986C305.536 104.331 305.558 126.975 305.558 158.5C305.558 190.025 305.536 212.669 303.154 229.901C300.813 246.847 296.358 257.064 288.594 264.615C280.83 272.167 270.327 276.501 252.905 278.778C235.189 281.095 211.91 281.116 179.5 281.116C147.09 281.116 123.81 281.095 106.094 278.778C88.6723 276.501 78.169 272.167 70.4059 264.615C62.6426 257.064 58.1878 246.847 55.8454 229.901C53.4635 212.669 53.4419 190.025 53.4419 158.5C53.4419 126.975 53.4635 104.331 55.8454 87.0986C58.1878 70.1523 62.6426 59.9357 70.4059 52.3846Z" fill="white"/>
</svg>
