<svg width="361" height="361" viewBox="0 0 361 361" fill="none" xmlns="http://www.w3.org/2000/svg">
<g clip-path="url(#clip0_4076_84)">
<rect width="361" height="361" rx="58" fill="#2FBF51"/>
<g clip-path="url(#clip1_4076_84)">
<path d="M144.5 168.833C154.125 168.833 163.535 165.979 171.538 160.632C179.541 155.284 185.779 147.683 189.462 138.791C193.146 129.898 194.109 120.113 192.232 110.672C190.354 101.232 185.719 92.5603 178.913 85.7542C172.106 78.948 163.435 74.313 153.994 72.4351C144.554 70.5573 134.769 71.5211 125.876 75.2046C116.983 78.888 109.383 85.1257 104.035 93.1289C98.6876 101.132 95.8334 110.541 95.8334 120.167C95.8334 133.074 100.961 145.452 110.088 154.579C119.214 163.706 131.593 168.833 144.5 168.833Z" fill="white"/>
<path d="M241.833 193.167C249.052 193.167 256.109 191.026 262.112 187.015C268.114 183.005 272.792 177.304 275.555 170.635C278.318 163.965 279.04 156.626 277.632 149.546C276.224 142.466 272.747 135.962 267.643 130.857C262.538 125.753 256.034 122.276 248.954 120.868C241.874 119.46 234.535 120.182 227.865 122.945C221.196 125.708 215.495 130.386 211.485 136.388C207.474 142.391 205.333 149.448 205.333 156.667C205.333 166.347 209.179 175.631 216.024 182.476C222.869 189.321 232.153 193.167 241.833 193.167Z" fill="white"/>
<path d="M290.5 278.333C293.727 278.333 296.821 277.052 299.103 274.77C301.385 272.488 302.667 269.393 302.667 266.167C302.657 254.796 299.46 243.655 293.44 234.009C287.419 224.362 278.815 216.597 268.604 211.593C258.394 206.589 246.985 204.547 235.672 205.698C224.36 206.85 213.596 211.149 204.603 218.108C192.686 206.238 177.521 198.162 161.02 194.9C144.519 191.637 127.422 193.333 111.884 199.775C96.346 206.216 83.0634 217.115 73.7112 231.095C64.3591 245.076 59.3561 261.513 59.3334 278.333C59.3334 281.56 60.6152 284.655 62.8969 286.936C65.1786 289.218 68.2732 290.5 71.5 290.5H217.5C220.727 290.5 223.821 289.218 226.103 286.936C228.385 284.655 229.667 281.56 229.667 278.333" fill="white"/>
</g>
</g>
<defs>
<clipPath id="clip0_4076_84">
<rect width="361" height="361" fill="white"/>
</clipPath>
<clipPath id="clip1_4076_84">
<rect width="292" height="292" fill="white" transform="translate(35 35)"/>
</clipPath>
</defs>
</svg>
