<svg width="361" height="396" viewBox="0 0 361 396" fill="none" xmlns="http://www.w3.org/2000/svg">
<path d="M19.0547 352.547V346.492H25.8516C29.0026 346.492 31.5417 345.685 33.4688 344.07C35.3958 342.43 36.3594 340.203 36.3594 337.391C36.3594 334.76 35.3958 332.651 33.4688 331.062C31.5417 329.448 29.0938 328.641 26.125 328.641C23.9115 328.641 21.9844 329.031 20.3438 329.812C18.7292 330.568 17.4531 331.57 16.5156 332.82C15.6042 334.044 15.0964 335.411 14.9922 336.922H8.11719C8.22135 334.5 8.9375 332.195 10.2656 330.008C11.6198 327.82 13.625 326.036 16.2812 324.656C18.9375 323.276 22.2318 322.586 26.1641 322.586C29.888 322.586 33.0521 323.224 35.6562 324.5C38.2604 325.75 40.2266 327.456 41.5547 329.617C42.9089 331.779 43.5859 334.161 43.5859 336.766C43.5859 339.005 43.1432 340.971 42.2578 342.664C41.3724 344.357 40.1484 345.724 38.5859 346.766C37.0495 347.807 35.2786 348.51 33.2734 348.875V349.266C35.5911 349.526 37.6615 350.229 39.4844 351.375C41.3073 352.521 42.7396 354.018 43.7812 355.867C44.849 357.69 45.3828 359.773 45.3828 362.117C45.3828 365.346 44.5755 368.159 42.9609 370.555C41.3724 372.951 39.1198 374.812 36.2031 376.141C33.3125 377.469 29.9271 378.133 26.0469 378.133C22.1927 378.133 18.8594 377.495 16.0469 376.219C13.2604 374.943 11.0859 373.211 9.52344 371.023C7.96094 368.81 7.11458 366.336 6.98438 363.602H13.7031C13.8854 365.164 14.4974 366.583 15.5391 367.859C16.6068 369.135 18.0391 370.151 19.8359 370.906C21.6589 371.661 23.7682 372.039 26.1641 372.039C28.638 372.039 30.7604 371.648 32.5312 370.867C34.3281 370.06 35.7083 368.927 36.6719 367.469C37.6354 365.984 38.1172 364.214 38.1172 362.156C38.1172 358.979 37.0234 356.583 34.8359 354.969C32.6484 353.354 29.6276 352.547 25.7734 352.547H19.0547ZM66.5547 377.664C62.5703 377.664 59.3281 376.531 56.8281 374.266C54.3542 372 53.1172 368.979 53.1172 365.203C53.1172 361.609 54.3411 358.745 56.7891 356.609C59.263 354.474 62.8568 353.393 67.5703 353.367H78.3125V349.266C78.3125 346.635 77.5703 344.617 76.0859 343.211C74.6276 341.805 72.5443 341.102 69.8359 341.102C68.1172 341.102 66.6458 341.375 65.4219 341.922C64.1979 342.469 63.2474 343.25 62.5703 344.266C61.8932 345.255 61.4766 346.414 61.3203 347.742H54.6797C54.7839 345.971 55.1615 344.331 55.8125 342.82C56.4896 341.284 57.4531 339.956 58.7031 338.836C59.9792 337.716 61.5547 336.844 63.4297 336.219C65.3307 335.568 67.5443 335.242 70.0703 335.242C73.013 335.242 75.6302 335.763 77.9219 336.805C80.2396 337.846 82.0495 339.37 83.3516 341.375C84.6797 343.354 85.3438 345.802 85.3438 348.719V377H78.5859V371.883H78.3516C77.6745 373.003 76.8021 373.992 75.7344 374.852C74.6667 375.711 73.3776 376.401 71.8672 376.922C70.3568 377.417 68.5859 377.664 66.5547 377.664ZM68.5078 371.883C70.3828 371.883 72.0625 371.518 73.5469 370.789C75.0312 370.06 76.1901 369.057 77.0234 367.781C77.8828 366.505 78.3125 365.034 78.3125 363.367V358.641H68.2734C65.487 358.641 63.4688 359.227 62.2188 360.398C60.9688 361.57 60.3438 363.081 60.3438 364.93C60.3438 367.299 61.1771 369.057 62.8438 370.203C64.5104 371.323 66.3984 371.883 68.5078 371.883ZM123.82 371.297V341.648H108.234C108.182 343.211 108.104 344.786 108 346.375C107.922 347.964 107.844 349.565 107.766 351.18C107.583 355.32 107.362 358.706 107.102 361.336C106.867 363.94 106.542 365.997 106.125 367.508C105.734 369.018 105.188 370.216 104.484 371.102V371.297H123.82ZM99.0547 388.133H92.8047V371.297H96.2422C97.4922 370.672 98.4297 369.682 99.0547 368.328C99.6797 366.974 100.135 364.943 100.422 362.234C100.708 359.526 100.956 355.854 101.164 351.219C101.268 348.667 101.372 346.115 101.477 343.562C101.607 341.01 101.724 338.458 101.828 335.906H130.891V371.297H137.414V388.133H131.164V377H99.0547V388.133ZM157.023 377.664C153.039 377.664 149.797 376.531 147.297 374.266C144.823 372 143.586 368.979 143.586 365.203C143.586 361.609 144.81 358.745 147.258 356.609C149.732 354.474 153.326 353.393 158.039 353.367H168.781V349.266C168.781 346.635 168.039 344.617 166.555 343.211C165.096 341.805 163.013 341.102 160.305 341.102C158.586 341.102 157.115 341.375 155.891 341.922C154.667 342.469 153.716 343.25 153.039 344.266C152.362 345.255 151.945 346.414 151.789 347.742H145.148C145.253 345.971 145.63 344.331 146.281 342.82C146.958 341.284 147.922 339.956 149.172 338.836C150.448 337.716 152.023 336.844 153.898 336.219C155.799 335.568 158.013 335.242 160.539 335.242C163.482 335.242 166.099 335.763 168.391 336.805C170.708 337.846 172.518 339.37 173.82 341.375C175.148 343.354 175.812 345.802 175.812 348.719V377H169.055V371.883H168.82C168.143 373.003 167.271 373.992 166.203 374.852C165.135 375.711 163.846 376.401 162.336 376.922C160.826 377.417 159.055 377.664 157.023 377.664ZM158.977 371.883C160.852 371.883 162.531 371.518 164.016 370.789C165.5 370.06 166.659 369.057 167.492 367.781C168.352 366.505 168.781 365.034 168.781 363.367V358.641H158.742C155.956 358.641 153.938 359.227 152.688 360.398C151.438 361.57 150.812 363.081 150.812 364.93C150.812 367.299 151.646 369.057 153.312 370.203C154.979 371.323 156.867 371.883 158.977 371.883ZM219.523 377H212.453V360.008H212.102C212.023 360.06 211.568 360.307 210.734 360.75C209.901 361.167 208.755 361.583 207.297 362C205.839 362.417 204.133 362.625 202.18 362.625C196.945 362.625 193.156 361.323 190.812 358.719C188.469 356.115 187.297 352.651 187.297 348.328V335.906H194.328V348.094C194.328 350.62 195.057 352.638 196.516 354.148C198 355.633 200.188 356.375 203.078 356.375C205.057 356.375 206.737 356.167 208.117 355.75C209.523 355.333 210.591 354.917 211.32 354.5C212.049 354.057 212.427 353.823 212.453 353.797V335.906H219.523V377ZM258.117 377V358.602H239.172V377H232.102V335.906H239.172V352.898H258.117V335.906H265.188V377H258.117ZM304.719 377V346.805H304.523L284.289 377H277.805V335.906H284.68V366.102H284.875L305.109 335.906H311.594V377H304.719ZM331.516 358.562H331.281V377H324.211V335.906H331.281V352.938H331.516L347.883 335.906H356.75L337.219 356.062L336.711 354.344L357.805 377H348.664L331.516 358.562Z" fill="white"/>
<path d="M180.149 206.071C173.082 206.071 166.166 204.752 159.594 202.148L73.7316 168.11C73.7316 187.073 73.7316 215.433 73.7316 222.991C73.7316 249.626 121.374 271.212 180.151 271.212C238.928 271.212 286.575 249.626 286.575 222.991V168.108L200.704 202.148C194.132 204.752 187.216 206.071 180.149 206.071Z" fill="white"/>
<path d="M345.472 112.506L194.877 52.8112C185.419 49.0629 174.884 49.0629 165.425 52.8112L14.8311 112.506C11.3105 113.901 9 117.305 9 121.091C9 124.878 11.3122 128.281 14.8311 129.677L35.912 138.033V197.808C31.2293 201 28.1537 206.378 28.1537 212.472C28.1537 218.055 30.7346 223.034 34.7652 226.286L28.3453 257.105C27.4844 261.241 28.5302 265.545 31.1967 268.821C33.8616 272.098 37.8613 274 42.0837 274H49.6984C53.9224 274 57.9205 272.098 60.5853 268.821C63.2502 265.545 64.296 261.241 63.4368 257.105L57.015 226.286C61.0474 223.034 63.6284 218.054 63.6284 212.472C63.6284 206.376 60.5528 201 55.8701 197.808V145.944L164.944 189.184C174.713 193.057 185.59 193.057 195.359 189.184L345.475 129.677C348.996 128.283 351.306 124.878 351.306 121.091C351.305 117.305 348.992 113.901 345.472 112.506Z" fill="white"/>
</svg>
